HIERARCHY
ROOT root
{
	OFFSET	0	13.1	24.9
	CHANNELS 6  Xposition Yposition Zposition Xrotation Yrotation Zrotation
	JOINT spine_1
	{
		OFFSET	0	9.99999	0
		CHANNELS 3  Xrotation Yrotation Zrotation
		JOINT spine_2
		{
			OFFSET	0	112	-10
			CHANNELS 3  Xrotation Yrotation Zrotation
			JOINT spine_3
			{
				OFFSET	0	206.5	19.3
				CHANNELS 3  Xrotation Yrotation Zrotation
				JOINT spine_4
				{
					OFFSET	0	110.4	14.6
					CHANNELS 3  Xrotation Yrotation Zrotation
					JOINT neck_1
					{
						OFFSET	0	71.8	-50.3
						CHANNELS 3  Xrotation Yrotation Zrotation
						JOINT neck_2
						{
							OFFSET	0	86.2	-25.8
							CHANNELS 3  Xrotation Yrotation Zrotation
							JOINT head_ee
							{
								OFFSET	0	179.8	-8.7
								CHANNELS 3  Xrotation Yrotation Zrotation
								End Site
								{
									OFFSET	1	0	0
								}
							}
						}
					}
					JOINT left_clavicle
					{
						OFFSET	-43.2	22.4	-70.8
						CHANNELS 3  Xrotation Yrotation Zrotation
						JOINT left_shoulder
						{
							OFFSET	-93.9	-5.79999	48.7
							CHANNELS 3  Xrotation Yrotation Zrotation
							JOINT left_elbow
							{
								OFFSET	-291.4	-30.8	15.2
								CHANNELS 3  Xrotation Yrotation Zrotation
								JOINT left_lowarm_twist
								{
									OFFSET	-110.7	-3.89999	13.6
									CHANNELS 3  Xrotation Yrotation Zrotation
									JOINT left_hand
									{
										OFFSET	-110.7	-3.89999	13.6
										CHANNELS 3  Xrotation Yrotation Zrotation
										JOINT left_ee
										{
											OFFSET	-80.8	-5.10001	12.1
											CHANNELS 3  Xrotation Yrotation Zrotation
											End Site
											{
												OFFSET	1	0	0
											}
										}
									}
								}
							}
						}
					}
					JOINT right_clavicle
					{
						OFFSET	43.2	22.4	-70.8
						CHANNELS 3  Xrotation Yrotation Zrotation
						JOINT right_shoulder
						{
							OFFSET	93.9	-5.79999	48.7
							CHANNELS 3  Xrotation Yrotation Zrotation
							JOINT right_elbow
							{
								OFFSET	291.4	-30.8	15.2
								CHANNELS 3  Xrotation Yrotation Zrotation
								JOINT right_lowarm_twist
								{
									OFFSET	110.7	-3.89999	13.6
									CHANNELS 3  Xrotation Yrotation Zrotation
									JOINT right_hand
									{
										OFFSET	110.7	-3.89999	13.6
										CHANNELS 3  Xrotation Yrotation Zrotation
										JOINT right_ee
										{
											OFFSET	80.8	-5.10001	12.1
											CHANNELS 3  Xrotation Yrotation Zrotation
											End Site
											{
												OFFSET	1	0	0
											}
										}
									}
								}
							}
						}
					}
				}
			}
		}
	}
	JOINT left_hip
	{
		OFFSET	-82.8	-127.5	0.300001
		CHANNELS 3  Xrotation Yrotation Zrotation
		JOINT left_knee
		{
			OFFSET	-28.2	-396.7	2.2
			CHANNELS 3  Xrotation Yrotation Zrotation
			JOINT left_ankle
			{
				OFFSET	-11.7	-411.3	35.4
				CHANNELS 3  Xrotation Yrotation Zrotation
				JOINT left_toes
				{
					OFFSET	0	-60	-88.6
					CHANNELS 3  Xrotation Yrotation Zrotation
					JOINT left_foot_ee
					{
						OFFSET	-22.5	-16.5	-42.2
						CHANNELS 3  Xrotation Yrotation Zrotation
						End Site
						{
							OFFSET	1	0	0
						}
					}
				}
			}
		}
	}
	JOINT right_hip
	{
		OFFSET	82.8	-127.5	0.300001
		CHANNELS 3  Xrotation Yrotation Zrotation
		JOINT right_knee
		{
			OFFSET	28.2	-396.7	2.2
			CHANNELS 3  Xrotation Yrotation Zrotation
			JOINT right_ankle
			{
				OFFSET	11.7	-411.3	35.4
				CHANNELS 3  Xrotation Yrotation Zrotation
				JOINT right_toes
				{
					OFFSET	0	-60	-88.6
					CHANNELS 3  Xrotation Yrotation Zrotation
					JOINT right_foot_ee
					{
						OFFSET	22.5	-16.5	-42.2
						CHANNELS 3  Xrotation Yrotation Zrotation
						End Site
						{
							OFFSET	1	0	0
						}
					}
				}
			}
		}
	}
}
MOTION
Frames: 13
Frame Time: 0.02
2528.49003831 758.053 -1532.8359697 74.7973230132 82.1383789231 -74.4797754322 -3.3378 -0.0588981 0.688621 -3.33755 -0.102596 0.683478 -3.33852 -0.281213 0.63134 -3.33903 -0.177978 0.667827 2.71317 5.50265 -4.6829 3.01441 13.5814 -4.83248 -0.0 0.0 -0.0 -2.44215 16.5666 -1.87418 -1.72191 -27.375 73.418 0.737002 -20.0566 0.13033 -3.81255 -0.149835 0.463635 -2.02311 21.9888 -2.99033 -0.0 0.0 -0.0 4.38363 13.7456 -7.6302 -7.15165 23.6375 -62.7455 2.10662 46.2153 -0.898963 -3.97398 0.156858 -0.483041 0.838061 -13.755 -10.9528 0.0 0.0 0.0 4.06952 9.94371 -9.61121 -27.5887 0.128844 4.19112 -21.333 28.2932 3.40573 22.83 -0.0 -0.0 -0.0 0.0 -0.0 7.55327 27.3554 -10.3569 -14.9039 -0.321521 -2.25814 6.83773 -1.73955 0.988103 -29.5897 0.0 0.0 0.0 0.0 0.0 
2527.15079704 759.613 -1521.70725802 94.4966586907 82.9948812021 -94.1741238678 -3.36604 -0.0627745 0.752574 -3.36574 -0.110534 0.747055 -3.36688 -0.306168 0.690343 -3.36749 -0.193302 0.73003 1.14958 5.27432 -3.84293 1.35893 12.5128 -3.72685 -0.0 0.0 -0.0 -1.78013 15.9629 -0.933921 -1.79245 -26.8335 72.7486 0.630379 -17.3422 0.096137 -3.44461 -0.134031 0.419331 -2.25293 22.1785 -4.23469 -0.0 0.0 -0.0 4.74986 12.8373 -8.47219 -5.04471 21.6745 -62.7677 2.32129 48.9814 -1.05753 -5.19248 0.211636 -0.62888 0.396473 -11.2014 -7.16388 0.0 0.0 0.0 4.83816 11.7515 -9.76675 -23.7059 0.233263 3.6045 -23.8618 28.296 3.81124 22.5882 -0.0 -0.0 -0.0 0.0 -0.0 6.70939 25.2398 -9.45872 -13.156 -0.314387 -1.99006 9.87349 -2.45679 1.41038 -29.0158 0.0 0.0 0.0 0.0 0.0 
2533.36053093 754.158 -1517.61287732 112.019971169 82.6200834054 -112.302759969 -3.53169 -0.0805477 0.795574 -3.53135 -0.131007 0.788837 -3.53281 -0.339165 0.724154 -3.53348 -0.220545 0.768627 -1.88399 5.19282 -4.67401 -1.69659 13.0752 -4.26897 -0.0 0.0 -0.0 -1.13972 14.4475 -0.140734 -1.61024 -26.4979 72.3381 0.557578 -15.4407 0.0755899 -1.98306 -0.0740796 0.242383 -2.26734 22.2871 -4.26378 -0.0 0.0 -0.0 5.51997 12.0544 -10.1518 -4.20164 18.6575 -61.5247 2.4498 50.5029 -1.15561 -7.29126 0.31323 -0.877273 -0.157883 -6.48918 -1.67654 0.0 0.0 0.0 5.36058 15.7233 -9.38264 -19.1365 0.304914 2.90719 -24.7734 27.2744 3.93252 21.9005 -0.0 -0.0 -0.0 0.0 -0.0 6.14991 23.7629 -8.49788 -10.269 -0.28471 -1.54814 12.3068 -5.21097 1.73657 -28.8862 0.0 0.0 0.0 0.0 0.0 
2533.23364632 759.605 -1520.36612059 126.812377054 82.963040371 -127.020422145 -3.8099 -0.155576 0.719902 -3.80964 -0.201069 0.708544 -3.81192 -0.387996 0.626041 -3.81236 -0.284257 0.679458 -1.84557 3.81388 -6.82162 -1.5858 12.2946 -6.72892 -0.0 0.0 -0.0 0.264307 7.15304 1.32166 -1.83148 -23.6804 72.6005 0.388527 -10.8944 0.0370499 4.20957 0.129181 -0.522056 -2.20672 26.0457 -2.03201 -0.0 0.0 -0.0 7.30749 12.3526 -13.938 -3.47 13.2712 -58.5436 2.43214 50.2994 -1.142 -10.8752 0.507564 -1.2924 -0.757606 10.5333 9.63183 0.0 0.0 0.0 5.70814 24.0115 -7.54563 4.71393 -0.222621 -0.688773 -22.7239 12.8981 3.42735 18.1291 -0.0 -0.0 -0.0 0.0 -0.0 6.78271 20.8906 -7.27248 -4.64378 -0.16315 -0.693813 5.20964 -11.3741 0.753097 -24.7632 0.0 0.0 0.0 0.0 0.0 
2532.11565062 759.605 -1513.41037636 135.299329059 81.9846486757 -135.580539349 -3.8099 -0.155576 0.719902 -3.80964 -0.201069 0.708544 -3.81192 -0.387996 0.626041 -3.81236 -0.284257 0.679458 -1.84557 3.81388 -6.82162 -1.5858 12.2946 -6.72892 -0.0 0.0 -0.0 0.264307 7.15304 1.32166 -1.83148 -23.6804 72.6005 0.388527 -10.8944 0.0370499 4.20957 0.129181 -0.522056 -2.20672 26.0457 -2.03201 -0.0 0.0 -0.0 7.30749 12.3526 -13.938 -3.47 13.2712 -58.5436 2.43214 50.2994 -1.142 -10.8752 0.507564 -1.2924 -0.757606 10.5333 9.63183 0.0 0.0 0.0 5.70814 24.0115 -7.54563 4.71393 -0.222621 -0.688773 -22.7239 12.8981 3.42735 18.1291 -0.0 -0.0 -0.0 0.0 -0.0 6.78271 20.8906 -7.27248 -4.64378 -0.16315 -0.693813 5.20964 -11.3741 0.753097 -24.7632 0.0 0.0 0.0 0.0 0.0 
2531.94218776 759.605 -1512.21564042 136.542547055 81.8017689217 -136.836303688 -3.8099 -0.155576 0.719902 -3.80964 -0.201069 0.708544 -3.81192 -0.387996 0.626041 -3.81236 -0.284257 0.679458 -1.84557 3.81388 -6.82162 -1.5858 12.2946 -6.72892 -0.0 0.0 -0.0 0.264307 7.15304 1.32166 -1.83148 -23.6804 72.6005 0.388527 -10.8944 0.0370499 4.20957 0.129181 -0.522056 -2.20672 26.0457 -2.03201 -0.0 0.0 -0.0 7.30749 12.3526 -13.938 -3.47 13.2712 -58.5436 2.43214 50.2994 -1.142 -10.8752 0.507564 -1.2924 -0.757606 10.5333 9.63183 0.0 0.0 0.0 5.70814 24.0115 -7.54563 4.71393 -0.222621 -0.688773 -22.7239 12.8981 3.42735 18.1291 -0.0 -0.0 -0.0 0.0 -0.0 6.78271 20.8906 -7.27248 -4.64378 -0.16315 -0.693813 5.20964 -11.3741 0.753097 -24.7632 0.0 0.0 0.0 0.0 0.0 
2531.70336356 759.605 -1510.50586608 138.225466736 81.5338585211 -138.537169597 -3.8099 -0.155576 0.719902 -3.80964 -0.201069 0.708544 -3.81192 -0.387996 0.626041 -3.81236 -0.284257 0.679458 -1.84557 3.81388 -6.82162 -1.5858 12.2946 -6.72892 -0.0 0.0 -0.0 0.264307 7.15304 1.32166 -1.83148 -23.6804 72.6005 0.388527 -10.8944 0.0370499 4.20957 0.129181 -0.522056 -2.20672 26.0457 -2.03201 -0.0 0.0 -0.0 7.30749 12.3526 -13.938 -3.47 13.2712 -58.5436 2.43214 50.2994 -1.142 -10.8752 0.507564 -1.2924 -0.757606 10.5333 9.63183 0.0 0.0 0.0 5.70814 24.0115 -7.54563 4.71393 -0.222621 -0.688773 -22.7239 12.8981 3.42735 18.1291 -0.0 -0.0 -0.0 0.0 -0.0 6.78271 20.8906 -7.27248 -4.64378 -0.16315 -0.693813 5.20964 -11.3741 0.753097 -24.7632 0.0 0.0 0.0 0.0 0.0 
2530.9455908 759.605 -1504.44424419 143.386800134 80.5345381164 -143.762060305 -3.8099 -0.155576 0.719902 -3.80964 -0.201069 0.708544 -3.81192 -0.387996 0.626041 -3.81236 -0.284257 0.679458 -1.84557 3.81388 -6.82162 -1.5858 12.2946 -6.72892 -0.0 0.0 -0.0 0.264307 7.15304 1.32166 -1.83148 -23.6804 72.6005 0.388527 -10.8944 0.0370499 4.20957 0.129181 -0.522056 -2.20672 26.0457 -2.03201 -0.0 0.0 -0.0 7.30749 12.3526 -13.938 -3.47 13.2712 -58.5436 2.43214 50.2994 -1.142 -10.8752 0.507564 -1.2924 -0.757606 10.5333 9.63183 0.0 0.0 0.0 5.70814 24.0115 -7.54563 4.71393 -0.222621 -0.688773 -22.7239 12.8981 3.42735 18.1291 -0.0 -0.0 -0.0 0.0 -0.0 6.78271 20.8906 -7.27248 -4.64378 -0.16315 -0.693813 5.20964 -11.3741 0.753097 -24.7632 0.0 0.0 0.0 0.0 0.0 
2530.59897293 759.605 -1501.22212815 145.695433506 79.9778355151 -146.104447716 -3.8099 -0.155576 0.719902 -3.80964 -0.201069 0.708544 -3.81192 -0.387996 0.626041 -3.81236 -0.284257 0.679458 -1.84557 3.81388 -6.82162 -1.5858 12.2946 -6.72892 -0.0 0.0 -0.0 0.264307 7.15304 1.32166 -1.83148 -23.6804 72.6005 0.388527 -10.8944 0.0370499 4.20957 0.129181 -0.522056 -2.20672 26.0457 -2.03201 -0.0 0.0 -0.0 7.30749 12.3526 -13.938 -3.47 13.2712 -58.5436 2.43214 50.2994 -1.142 -10.8752 0.507564 -1.2924 -0.757606 10.5333 9.63183 0.0 0.0 0.0 5.70814 24.0115 -7.54563 4.71393 -0.222621 -0.688773 -22.7239 12.8981 3.42735 18.1291 -0.0 -0.0 -0.0 0.0 -0.0 6.78271 20.8906 -7.27248 -4.64378 -0.16315 -0.693813 5.20964 -11.3741 0.753097 -24.7632 0.0 0.0 0.0 0.0 0.0 
2530.74986669 759.605 -1502.66951761 144.691469484 80.229789274 -145.085323107 -3.8099 -0.155576 0.719902 -3.80964 -0.201069 0.708544 -3.81192 -0.387996 0.626041 -3.81236 -0.284257 0.679458 -1.84557 3.81388 -6.82162 -1.5858 12.2946 -6.72892 -0.0 0.0 -0.0 0.264307 7.15304 1.32166 -1.83148 -23.6804 72.6005 0.388527 -10.8944 0.0370499 4.20957 0.129181 -0.522056 -2.20672 26.0457 -2.03201 -0.0 0.0 -0.0 7.30749 12.3526 -13.938 -3.47 13.2712 -58.5436 2.43214 50.2994 -1.142 -10.8752 0.507564 -1.2924 -0.757606 10.5333 9.63183 0.0 0.0 0.0 5.70814 24.0115 -7.54563 4.71393 -0.222621 -0.688773 -22.7239 12.8981 3.42735 18.1291 -0.0 -0.0 -0.0 0.0 -0.0 6.78271 20.8906 -7.27248 -4.64378 -0.16315 -0.693813 5.20964 -11.3741 0.753097 -24.7632 0.0 0.0 0.0 0.0 0.0 
2530.61347529 759.605 -1501.36456998 145.598914758 80.0027595478 -146.006437086 -3.8099 -0.155576 0.719902 -3.80964 -0.201069 0.708544 -3.81192 -0.387996 0.626041 -3.81236 -0.284257 0.679458 -1.84557 3.81388 -6.82162 -1.5858 12.2946 -6.72892 -0.0 0.0 -0.0 0.264307 7.15304 1.32166 -1.83148 -23.6804 72.6005 0.388527 -10.8944 0.0370499 4.20957 0.129181 -0.522056 -2.20672 26.0457 -2.03201 -0.0 0.0 -0.0 7.30749 12.3526 -13.938 -3.47 13.2712 -58.5436 2.43214 50.2994 -1.142 -10.8752 0.507564 -1.2924 -0.757606 10.5333 9.63183 0.0 0.0 0.0 5.70814 24.0115 -7.54563 4.71393 -0.222621 -0.688773 -22.7239 12.8981 3.42735 18.1291 -0.0 -0.0 -0.0 0.0 -0.0 6.78271 20.8906 -7.27248 -4.64378 -0.16315 -0.693813 5.20964 -11.3741 0.753097 -24.7632 0.0 0.0 0.0 0.0 0.0 
2530.22145191 759.605 -1497.20838679 148.22622816 79.2650551973 -148.677273713 -3.8099 -0.155576 0.719902 -3.80964 -0.201069 0.708544 -3.81192 -0.387996 0.626041 -3.81236 -0.284257 0.679458 -1.84557 3.81388 -6.82162 -1.5858 12.2946 -6.72892 -0.0 0.0 -0.0 0.264307 7.15304 1.32166 -1.83148 -23.6804 72.6005 0.388527 -10.8944 0.0370499 4.20957 0.129181 -0.522056 -2.20672 26.0457 -2.03201 -0.0 0.0 -0.0 7.30749 12.3526 -13.938 -3.47 13.2712 -58.5436 2.43214 50.2994 -1.142 -10.8752 0.507564 -1.2924 -0.757606 10.5333 9.63183 0.0 0.0 0.0 5.70814 24.0115 -7.54563 4.71393 -0.222621 -0.688773 -22.7239 12.8981 3.42735 18.1291 -0.0 -0.0 -0.0 0.0 -0.0 6.78271 20.8906 -7.27248 -4.64378 -0.16315 -0.693813 5.20964 -11.3741 0.753097 -24.7632 0.0 0.0 0.0 0.0 0.0 
2529.97166682 759.605 -1494.1182842 149.951412362 78.7041462436 -150.434813463 -3.8099 -0.155576 0.719902 -3.80964 -0.201069 0.708544 -3.81192 -0.387996 0.626041 -3.81236 -0.284257 0.679458 -1.84557 3.81388 -6.82162 -1.5858 12.2946 -6.72892 -0.0 0.0 -0.0 0.264307 7.15304 1.32166 -1.83148 -23.6804 72.6005 0.388527 -10.8944 0.0370499 4.20957 0.129181 -0.522056 -2.20672 26.0457 -2.03201 -0.0 0.0 -0.0 7.30749 12.3526 -13.938 -3.47 13.2712 -58.5436 2.43214 50.2994 -1.142 -10.8752 0.507564 -1.2924 -0.757606 10.5333 9.63183 0.0 0.0 0.0 5.70814 24.0115 -7.54563 4.71393 -0.222621 -0.688773 -22.7239 12.8981 3.42735 18.1291 -0.0 -0.0 -0.0 0.0 -0.0 6.78271 20.8906 -7.27248 -4.64378 -0.16315 -0.693813 5.20964 -11.3741 0.753097 -24.7632 0.0 0.0 0.0 0.0 0.0 
